<svg width="28" height="28" viewBox="0 0 28 28" fill="none" xmlns="http://www.w3.org/2000/svg">
<g filter="url(#filter0_d_5_40323)">
<path d="M23.0059 9.17981V10.0081C23.0047 11.9495 22.3761 13.8385 21.2137 15.3935C20.0512 16.9484 18.4173 18.0859 16.5556 18.6364C14.6938 19.1869 12.704 19.1208 10.8829 18.4479C9.06183 17.7751 7.507 16.5317 6.45034 14.903C5.39367 13.2744 4.89178 11.3478 5.01952 9.41057C5.14725 7.47336 5.89778 5.62935 7.15915 4.15354C8.42053 2.67773 10.1252 1.64921 12.0189 1.22135C13.9125 0.793503 15.8938 0.989251 17.6671 1.77941" stroke="#212529" stroke-width="2" stroke-linecap="round" stroke-linejoin="round"/>
<path d="M23.0059 2.80566L14.0029 11.8176L11.3021 9.11672" stroke="#212529" stroke-width="2" stroke-linecap="round" stroke-linejoin="round"/>
</g>
<defs>
<filter id="filter0_d_5_40323" x="0" y="0" width="28.0059" height="28.0059" filterUnits="userSpaceOnUse" color-interpolation-filters="sRGB">
<feFlood flood-opacity="0" result="BackgroundImageFix"/>
<feColorMatrix in="SourceAlpha" type="matrix" values="0 0 0 0 0 0 0 0 0 0 0 0 0 0 0 0 0 0 127 0" result="hardAlpha"/>
<feOffset dy="4"/>
<feGaussianBlur stdDeviation="2"/>
<feComposite in2="hardAlpha" operator="out"/>
<feColorMatrix type="matrix" values="0 0 0 0 0 0 0 0 0 0 0 0 0 0 0 0 0 0 0.25 0"/>
<feBlend mode="normal" in2="BackgroundImageFix" result="effect1_dropShadow_5_40323"/>
<feBlend mode="normal" in="SourceGraphic" in2="effect1_dropShadow_5_40323" result="shape"/>
</filter>
</defs>
</svg>
